<svg role="img" viewBox="0 0 24 24" xmlns="http://www.w3.org/2000/svg"><title>Java</title><path fill="#ED8B00" d="M11.926 23.95c-3.1 0-6.17-.67-8.31-2.18-.39-.27-.55-.78-.42-1.24l.02-.03c.53-1.63 2.15-2.6 3.82-2.31 3.03.54 6.78.36 9.87-.91 1.48-.61 3.19-.1 4.14 1.2.69.95.82 2.12.38 3.16-.9 2.12-5.46 2.31-9.5 2.31zM0 16.59c0 1.94 11.23 2.5 16.89 2.5 4.5 0 6.64-1.74 7.07-2.91.56-1.57-1.42-3.23-4.52-4.04-1.01-.27-2.07-.1-3 .42-.98.54-2.1 1.05-3.35 1.4-2.25.63-4.71.69-7.05.18-1.73-.38-3.32-.96-4.74-1.74-.29-.16-.62-.22-.95-.15-.9.18-1.52 1.05-1.35 1.94.13.68-.02 2.1-.02 2.4zM10.27.04c-1.38.25-2.06 1.15-2.04 2.21.03 1.15 1.02 2.41 2.29 2.87.52.19 1.14.24 1.7.07.69-.21 1.43-.65 2.06-1.31 1.07-1.11 1.08-2.61.02-3.36-.61-.43-1.36-.66-2.15-.65-1.07.02-1.65.11-1.88.17zM5.38 7.35c.14.77.72 2 2.32 2.11 3.4.24 7.62-.97 10.9-3.08 1.45-.93 2.09-2.73 1.5-4.36-.29-.81-.96-1.38-1.77-1.62-.21-.06-.51-.12-.87-.13-2.16-.08-4.22.95-6.07 2.18-2.11 1.41-5.18 3.14-5.96 4.77-.07.15-.05.3.05.43z"/></svg>